<svg data-name="Layer 1" xmlns="http://www.w3.org/2000/svg" viewBox="0 0 400.84 143.57"><text transform="translate(27 8.57)" font-size="10" fill="#231f20" font-family="OpenSans, Open Sans">Condo/<tspan x="34.33" y="0" letter-spacing="-.11em">T</tspan><tspan x="38.75" y="0">ownhouse Development</tspan></text><text transform="translate(27 20.57)" font-size="10" fill="#231f20" font-family="OpenSans, Open Sans">(Multiple Owners)</text><text transform="translate(27 41.57)" font-size="10" fill="#231f20" font-family="OpenSans, Open Sans">Minnea<tspan x="35" y="0" letter-spacing=".01em">p</tspan><tspan x="41.22" y="0">olis </tspan><tspan x="59.69" y="0" letter-spacing="-.02em">P</tspan><tspan x="65.52" y="0" letter-spacing="0em">arks B</tspan><tspan x="94.26" y="0" letter-spacing="0em">o</tspan><tspan x="100.34" y="0">a</tspan><tspan x="105.9" y="0" letter-spacing="-.01em">r</tspan><tspan x="109.89" y="0">d</tspan></text><text transform="translate(27 65.57)" font-size="10" fill="#231f20" font-family="OpenSans, Open Sans">Minnea<tspan x="35" y="0" letter-spacing=".01em">p</tspan><tspan x="41.22" y="0">olis </tspan><tspan x="59.69" y="0" letter-spacing="-.02em">P</tspan><tspan x="65.52" y="0" letter-spacing="0em">ublic S</tspan><tspan x="95.69" y="0" letter-spacing="-.01em">c</tspan><tspan x="100.4" y="0">h</tspan><tspan x="106.54" y="0" letter-spacing=".01em">o</tspan><tspan x="112.68" y="0">ols</tspan></text><text transform="translate(27 89.57)" font-size="10" fill="#231f20" font-family="OpenSans, Open Sans"><tspan letter-spacing="-.02em">X</tspan><tspan x="5.53" y="0" letter-spacing="0em">c</tspan><tspan x="10.33" y="0">el </tspan><tspan x="21.07" y="0" letter-spacing="-.01em">E</tspan><tspan x="26.48" y="0">n</tspan><tspan x="32.62" y="0" letter-spacing="0em">e</tspan><tspan x="38.19" y="0" letter-spacing="-.01em">r</tspan><tspan x="42.18" y="0" letter-spacing="0em">g</tspan><tspan x="47.62" y="0" letter-spacing="-.07em">y</tspan><tspan x="51.92" y="0">, Inc.</tspan></text><text transform="translate(27 113.57)" font-size="10" fill="#231f20" font-family="OpenSans, Open Sans"><tspan letter-spacing="-.02em">U</tspan><tspan x="7.04" y="0" letter-spacing="-.04em">.</tspan><tspan x="9.31" y="0" letter-spacing="-.03em">S</tspan><tspan x="14.51" y="0">. </tspan><tspan x="19.77" y="0" letter-spacing="-.01em">F</tspan><tspan x="24.78" y="0" letter-spacing="0em">e</tspan><tspan x="30.43" y="0">d</tspan><tspan x="36.56" y="0" letter-spacing="0em">e</tspan><tspan x="42.13" y="0" letter-spacing="-.01em">r</tspan><tspan x="46.12" y="0">al Go</tspan><tspan x="70.13" y="0" letter-spacing="0em">ve</tspan><tspan x="80.67" y="0" letter-spacing="-.01em">r</tspan><tspan x="84.66" y="0">nm</tspan><tspan x="100.1" y="0" letter-spacing="0em">e</tspan><tspan x="105.67" y="0">nt</tspan></text><text transform="translate(27 137.57)" font-size="10" fill="#231f20" font-family="OpenSans, Open Sans">De <tspan x="15.5" y="0" letter-spacing=".01em">L</tspan><tspan x="20.83" y="0">a </tspan><tspan x="28.99" y="0" letter-spacing="-.01em">S</tspan><tspan x="34.38" y="0">alle High S</tspan><tspan x="82.81" y="0" letter-spacing="0em">c</tspan><tspan x="87.52" y="0">h</tspan><tspan x="93.66" y="0" letter-spacing=".01em">o</tspan><tspan x="99.8" y="0">ol (</tspan><tspan x="113.93" y="0" letter-spacing="-.04em">P</tspan><tspan x="119.56" y="0">r</tspan><tspan x="123.64" y="0" letter-spacing="0em">i</tspan><tspan x="126.12" y="0" letter-spacing="0em">v</tspan><tspan x="131.09" y="0">a</tspan><tspan x="136.65" y="0" letter-spacing=".01em">t</tspan><tspan x="140.27" y="0">e)</tspan></text><path fill="#f5d3f4" d="M0 2.82h18v18H0z"/><path fill="#cce6cd" d="M0 29.57h18v18H0z"/><path fill="#b6c4d1" d="M0 53.57h18v18H0z"/><path fill="#dfc6d9" d="M0 77.57h18v18H0z"/><path fill="#dec4c5" d="M0 101.57h18v18H0z"/><path fill="#d9dde0" d="M.36 125.57h18v18h-18z"/><text transform="translate(243 23.57)" font-size="10" fill="#231f20" font-family="OpenSans, Open Sans">Un<tspan x="13.42" y="0" letter-spacing="0em">ive</tspan><tspan x="26.45" y="0" letter-spacing="-.01em">r</tspan><tspan x="30.44" y="0" letter-spacing="0em">s</tspan><tspan x="35.26" y="0">i</tspan><tspan x="37.79" y="0" letter-spacing=".01em">t</tspan><tspan x="41.46" y="0">y of Minne</tspan><tspan x="90.57" y="0" letter-spacing="0em">s</tspan><tspan x="95.38" y="0">o</tspan><tspan x="101.42" y="0" letter-spacing=".04em">t</tspan><tspan x="105.35" y="0">a</tspan></text><text transform="translate(243 47.57)" font-size="10" fill="#231f20" font-family="OpenSans, Open Sans"><tspan letter-spacing="0em">C</tspan><tspan x="6.36" y="0">i</tspan><tspan x="8.89" y="0" letter-spacing=".02em">t</tspan><tspan x="12.57" y="0">y of Minnea</tspan><tspan x="67.24" y="0" letter-spacing=".01em">p</tspan><tspan x="73.45" y="0">olis</tspan></text><text transform="translate(243 71.57)" font-size="10" fill="#231f20" font-family="OpenSans, Open Sans">C<tspan x="6.31" y="0" letter-spacing="0em">e</tspan><tspan x="11.88" y="0">n</tspan><tspan x="18.02" y="0" letter-spacing=".01em">t</tspan><tspan x="21.65" y="0" letter-spacing="0em">e</tspan><tspan x="27.22" y="0">r</tspan><tspan x="31.3" y="0" letter-spacing="0em">P</tspan><tspan x="37.28" y="0">oint </tspan><tspan x="58.11" y="0" letter-spacing="-.01em">E</tspan><tspan x="63.53" y="0">n</tspan><tspan x="69.66" y="0" letter-spacing="0em">e</tspan><tspan x="75.23" y="0" letter-spacing="-.01em">r</tspan><tspan x="79.23" y="0" letter-spacing="0em">g</tspan><tspan x="84.66" y="0" letter-spacing="-.07em">y</tspan><tspan x="88.95" y="0">, Inc.</tspan></text><text transform="translate(243 95.57)" font-size="10" fill="#231f20" font-family="OpenSans, Open Sans">Guthrie Thea<tspan x="60.75" y="0" letter-spacing="0em">t</tspan><tspan x="64.32" y="0" letter-spacing="-.01em">r</tspan><tspan x="68.31" y="0" letter-spacing="-.02em">e</tspan><tspan x="73.73" y="0">/Mill </tspan><tspan x="96.62" y="0" letter-spacing="0em">C</tspan><tspan x="102.96" y="0">i</tspan><tspan x="105.49" y="0" letter-spacing=".02em">t</tspan><tspan x="109.17" y="0">y Mu</tspan><tspan x="131.98" y="0" letter-spacing="0em">s</tspan><tspan x="136.79" y="0">eum</tspan></text><text transform="translate(243 116.57)" font-size="10" fill="#231f20" font-family="OpenSans, Open Sans"><tspan letter-spacing="0em">B</tspan><tspan x="6.44" y="0">urling</tspan><tspan x="33.33" y="0" letter-spacing=".01em">t</tspan><tspan x="36.95" y="0">on </tspan><tspan x="51.73" y="0" letter-spacing="0em">N</tspan><tspan x="59.23" y="0">o</tspan><tspan x="65.27" y="0" letter-spacing=".02em">r</tspan><tspan x="69.5" y="0">th</tspan><tspan x="79.17" y="0" letter-spacing="0em">e</tspan><tspan x="84.74" y="0" letter-spacing="-.01em">r</tspan><tspan x="88.72" y="0">n </tspan><tspan x="97.46" y="0" letter-spacing="-.01em">S</tspan><tspan x="102.85" y="0">an</tspan><tspan x="114.55" y="0" letter-spacing=".04em">t</tspan><tspan x="118.48" y="0">a </tspan><tspan x="126.64" y="0" letter-spacing="-.01em">F</tspan><tspan x="131.67" y="0">e</tspan></text><text transform="translate(243 128.57)" font-size="10" fill="#231f20" font-family="OpenSans, Open Sans">Rail<tspan x="16.8" y="0" letter-spacing="-.01em">r</tspan><tspan x="20.79" y="0" letter-spacing="0em">o</tspan><tspan x="26.87" y="0" letter-spacing="0em">a</tspan><tspan x="32.49" y="0">d</tspan></text><path fill="#e2e2c8" d="M216 11.57h18v18h-18z"/><path fill="#d1c7e0" d="M216 35.57h18v18h-18z"/><path fill="#c0dddb" d="M216 59.57h18v18h-18z"/><path fill="#e2d6c8" d="M216 83.57h18v18h-18z"/><path fill="#acacac" d="M216 110.57h18v18h-18z"/></svg>