<svg id="Layer_1" data-name="Layer 1" xmlns="http://www.w3.org/2000/svg" xmlns:xlink="http://www.w3.org/1999/xlink" viewBox="0 0 142.8 95.88"><defs><clipPath id="clip-path" transform="translate(-0.88 -1.56)"><rect x="-8.12" width="198" height="99" fill="none"/></clipPath><clipPath id="clip-path-3" transform="translate(-0.88 -1.56)"><rect x="-0.12" y="67.39" width="31.05" height="31.05" fill="none"/></clipPath><clipPath id="clip-path-4" transform="translate(-0.88 -1.56)"><rect x="6.39" y="67.52" width="2.25" height="30.44" fill="none"/></clipPath><clipPath id="clip-path-5" transform="translate(-0.88 -1.56)"><rect y="88.09" width="30.44" height="2.25" fill="none"/></clipPath><clipPath id="clip-path-6" transform="translate(-0.88 -1.56)"><rect x="19.35" y="67.52" width="2.25" height="30.8" fill="none"/></clipPath><clipPath id="clip-path-7" transform="translate(-0.88 -1.56)"><rect y="75.13" width="30.8" height="2.25" fill="none"/></clipPath></defs><g clip-path="url(#clip-path)"><rect x="0.13" width="28.8" height="28.8" fill="#e1e5f4"/><rect x="0.13" y="33.48" width="28.8" height="28.8" fill="#42323f"/><text transform="translate(37.8 19.9)" font-size="10" fill="#231f20" font-family="OpenSans, Open Sans"><tspan letter-spacing="0em">D</tspan><tspan x="7.25" y="0">a</tspan><tspan x="12.81" y="0" letter-spacing="-0.01em">k</tspan><tspan x="17.91" y="0">o</tspan><tspan x="23.95" y="0" letter-spacing="0.04em">t</tspan><tspan x="27.88" y="0">a </tspan><tspan x="36.04" y="0" letter-spacing="-0.09em">T</tspan><tspan x="40.72" y="0" letter-spacing="0em">e</tspan><tspan x="46.29" y="0" letter-spacing="-0.01em">r</tspan><tspan x="50.28" y="0" letter-spacing="0em">ri</tspan><tspan x="56.9" y="0" letter-spacing="0.01em">t</tspan><tspan x="60.53" y="0">o</tspan><tspan x="66.57" y="0" letter-spacing="-0.02em">r</tspan><tspan x="70.46" y="0">y</tspan></text><text transform="translate(37.8 51.4)" font-size="10" fill="#231f20" font-family="OpenSans, Open Sans">Ani<tspan x="15" y="0" letter-spacing="-0.01em">s</tspan><tspan x="19.68" y="0">hin</tspan><tspan x="34.48" y="0" letter-spacing="0em">a</tspan><tspan x="40.08" y="0">a</tspan><tspan x="45.64" y="0" letter-spacing="0.01em">b</tspan><tspan x="51.87" y="0">e </tspan><tspan x="60.08" y="0" letter-spacing="-0.08em">T</tspan><tspan x="64.76" y="0" letter-spacing="0em">e</tspan><tspan x="70.33" y="0" letter-spacing="-0.01em">r</tspan><tspan x="74.32" y="0">ri</tspan><tspan x="80.94" y="0" letter-spacing="0.01em">t</tspan><tspan x="84.56" y="0">o</tspan><tspan x="90.6" y="0" letter-spacing="-0.02em">r</tspan><tspan x="94.49" y="0">y</tspan></text><text transform="translate(37.8 83.98)" font-size="10" fill="#231f20" font-family="OpenSans, Open Sans">Uni<tspan x="15.95" y="0" letter-spacing="0.01em">t</tspan><tspan x="19.58" y="0" letter-spacing="0em">e</tspan><tspan x="25.23" y="0">d S</tspan><tspan x="39.44" y="0" letter-spacing="0.04em">t</tspan><tspan x="43.37" y="0">a</tspan><tspan x="48.93" y="0" letter-spacing="0.01em">t</tspan><tspan x="52.56" y="0">es </tspan><tspan x="65.54" y="0" letter-spacing="-0.08em">T</tspan><tspan x="70.22" y="0" letter-spacing="0em">e</tspan><tspan x="75.79" y="0" letter-spacing="-0.01em">r</tspan><tspan x="79.79" y="0">ri</tspan><tspan x="86.4" y="0" letter-spacing="0.01em">t</tspan><tspan x="90.03" y="0">o</tspan><tspan x="96.07" y="0" letter-spacing="-0.02em">r</tspan><tspan x="99.96" y="0">y</tspan></text><g clip-path="url(#clip-path)"><g opacity="0.5"><g clip-path="url(#clip-path-3)"><rect x="0.13" y="66.96" width="28.8" height="28.8" fill="#fff"/><rect x="0.13" y="66.96" width="28.8" height="28.8" fill="none" stroke="#231f20" stroke-width="0.25"/></g></g><g opacity="0.5"><g clip-path="url(#clip-path-4)"><line x1="6.64" y1="66.96" x2="6.64" y2="95.4" fill="none" stroke="#231f20" stroke-width="0.25"/></g></g><g opacity="0.5"><g clip-path="url(#clip-path-5)"><line x1="0.13" y1="87.66" x2="28.56" y2="87.66" fill="none" stroke="#231f20" stroke-width="0.25"/></g></g><g opacity="0.5"><g clip-path="url(#clip-path-6)"><line x1="19.6" y1="66.96" x2="19.6" y2="95.76" fill="none" stroke="#231f20" stroke-width="0.25"/></g></g><g opacity="0.5"><g clip-path="url(#clip-path-7)"><line x1="0.13" y1="74.7" x2="28.92" y2="74.7" fill="none" stroke="#231f20" stroke-width="0.25"/></g></g></g></g></svg>